Coordinates
version=1
nRows=8
nColumns=40
inDegrees=yes

Units are S.I. units (second, meters, Newtons, ...)
Angles are in degrees.

endheader
time	pelvis_tilt	pelvis_list	pelvis_rotation	pelvis_tx	pelvis_ty	pelvis_tz	hip_flexion_r	hip_adduction_r	hip_rotation_r	knee_angle_r	knee_angle_r_beta	ankle_angle_r	subtalar_angle_r	mtp_angle_r	hip_flexion_l	hip_adduction_l	hip_rotation_l	knee_angle_l	knee_angle_l_beta	ankle_angle_l	subtalar_angle_l	mtp_angle_l	lumbar_extension	lumbar_bending	lumbar_rotation	arm_flex_r	arm_add_r	arm_rot_r	elbow_flex_r	pro_sup_r	wrist_flex_r	wrist_dev_r	arm_flex_l	arm_add_l	arm_rot_l	elbow_flex_l	pro_sup_l	wrist_flex_l	wrist_dev_l
      0.54000000	     -0.01939052	      4.15466331	     -5.73658231	     -0.24154946	      0.94102330	      1.07090851	    -14.85022342	     -9.70938073	    -18.78605813	    -17.36418686	     -0.30306223	      7.19286922	     10.34598153	    -15.61900970	     23.29646237	      0.75904028	     17.88976573	    -12.88479957	     -0.22488218	      0.64234394	      2.39183516	      7.29604112	     -2.06934556	     -7.35269390	      9.93850404	     12.76647492	    -12.57183098	    -11.25186073	     35.34857099	     89.95437384	      0.00000000	      0.00000000	    -20.77106702	     14.57259686	     18.15735440	      5.41051856	     89.95437384	      0.00000000	      0.00000000
      0.55000000	     -0.02097301	      4.36232991	     -5.78038910	     -0.22849384	      0.94024056	      1.06840086	    -15.32108656	    -10.40789393	    -19.02063373	    -17.95753511	     -0.31341811	      6.21693299	     10.57614942	    -15.37092957	     22.69161354	      0.37137863	     17.86890407	    -13.17607927	     -0.22996597	      0.81118264	      2.44679148	      7.08176856	     -1.67075441	     -7.48106640	     10.03719774	     12.19837329	    -12.62439944	    -11.12367164	     35.72166822	     89.95437384	      0.00000000	      0.00000000	    -20.89670851	     14.38073214	     18.11003753	      5.20659335	     89.95437384	      0.00000000	      0.00000000
      0.56000000	      0.41490446	      4.89660185	     -5.81220692	     -0.21502110	      0.94013881	      1.06560103	    -16.23862012	    -11.65032418	    -19.98210420	    -18.69650450	     -0.32631556	      5.24410029	     11.82185429	    -15.43940834	     21.57725764	     -0.36990456	     19.34512178	    -12.99524256	     -0.22680977	     -1.27466627	      2.72599856	      7.15043559	     -1.74907429	     -8.02147460	     10.00390432	     11.62741413	    -12.59571036	    -11.00541370	     36.17198977	     89.95437384	      0.00000000	      0.00000000	    -21.11033384	     14.18715852	     18.26857943	      5.35253470	     89.95437384	      0.00000000	      0.00000000
      0.57000000	      0.68719109	      5.40456966	     -5.82701343	     -0.20186062	      0.93995372	      1.06275714	    -16.86183652	    -12.82696679	    -20.70556796	    -19.58402150	     -0.34180566	      4.03988705	     12.49463164	    -15.32567927	     20.64318524	     -1.04851298	     20.42494259	    -12.62987733	     -0.22043294	     -3.51211866	      2.75459060	      7.00338936	     -1.67359175	     -8.53672364	      9.96926859	     11.08178114	    -12.52267993	    -10.97808322	     36.47043545	     89.95437384	      0.00000000	      0.00000000	    -21.18312860	     13.99294271	     18.37439992	      5.38473880	     89.95437384	      0.00000000	      0.00000000
      0.58000000	      0.90954761	      5.91467242	     -5.80356572	     -0.18881417	      0.93979827	      1.05973045	    -17.27603115	    -14.06250917	    -21.57351845	    -20.71000448	     -0.36145777	      2.36500852	     13.16887809	    -15.96108771	     19.87117056	     -1.69072462	     21.07182949	    -12.40659113	     -0.21653586	     -7.35595666	      2.81840579	     -3.61408541	     -1.54207269	     -9.02497964	      9.87863886	     10.52843410	    -12.49391007	    -10.75217554	     36.70114660	     89.95437384	      0.00000000	      0.00000000	    -21.18393145	     13.75449407	     18.23678480	      5.41442744	     89.95437384	      0.00000000	      0.00000000
      0.59000000	      0.93944251	      6.29331971	     -5.66554247	     -0.17632753	      0.93963849	      1.05655591	    -17.27072113	    -15.04904346	    -22.05393774	    -22.12035667	     -0.38607306	      0.73295898	     12.73059957	    -15.34958523	     19.65059422	     -2.06724143	     21.28452907	    -13.26502565	     -0.23151837	     -8.41855543	      2.21958266	     -3.44998503	     -1.28245084	     -9.36040870	      9.72612475	     10.06190122	    -12.36009882	    -10.87872228	     36.68736434	     89.95437384	      0.00000000	      0.00000000	    -20.94530093	     13.51551422	     17.96977695	      5.26654835	     89.95437384	      0.00000000	      0.00000000
      0.60000000	      0.92877205	      7.00859508	     -5.52095643	     -0.16352483	      0.93954252	      1.05283576	    -17.03647399	    -16.57948062	    -22.86233240	    -23.90541365	     -0.41722818	     -1.20641680	     12.87831474	    -14.65819040	     19.58847339	     -2.82578142	     21.63679411	    -14.52684414	     -0.25354126	     -8.15098525	      1.16866975	     -3.71396220	     -0.92306231	    -10.00333749	      9.60699361	      9.41757776	    -12.20617820	    -11.17843667	     36.79431325	     89.95437384	      0.00000000	      0.00000000	    -20.76783597	     13.26853705	     17.54298372	      5.39556890	     89.95437384	      0.00000000	      0.00000000
      0.61000000	      0.68158717	      7.79418410	     -5.39909393	     -0.15119572	      0.93930737	      1.04939518	    -16.19261754	    -18.28280662	    -23.62705247	    -26.25266163	     -0.45819538	     -2.97916733	     13.34420300	    -13.94888540	     19.74328657	     -3.74253750	     21.74674384	    -15.60667372	     -0.27238784	     -7.94504983	      0.92786880	     -4.07271201	     -0.32565138	    -10.74042367	      9.61250181	      8.71723333	    -11.99162960	    -11.49770747	     36.81077731	     89.95437384	      0.00000000	      0.00000000	    -20.46327596	     13.12682094	     16.42587854	      5.44196211	     89.95437384	      0.00000000	      0.00000000
